<?xml version="1.0" standalone="no"?>
<!DOCTYPE svg PUBLIC "-//W3C//DTD SVG 20010904//EN"
 "http://www.w3.org/TR/2001/REC-SVG-20010904/DTD/svg10.dtd">
<svg version="1.0" xmlns="http://www.w3.org/2000/svg"
 width="483.000000pt" height="555.000000pt" viewBox="0 0 483.000000 555.000000"
 preserveAspectRatio="xMidYMid meet">

<g transform="translate(0.000000,555.000000) scale(0.100000,-0.100000)"
fill="#000000" stroke="none">
<path d="M3650 4140 l0 -350 55 0 55 0 0 350 0 350 -55 0 -55 0 0 -350z"/>
<path d="M3157 4296 c-153 -96 -288 -183 -300 -194 -12 -11 -35 -24 -50 -27
-15 -4 -52 -29 -82 -56 -50 -47 -107 -79 -139 -79 -9 0 -16 16 -21 50 -4 27
-10 52 -15 55 -4 2 -171 -27 -371 -65 -200 -38 -376 -70 -391 -70 -15 0 -30
-5 -33 -11 -4 -5 -35 -120 -70 -255 -59 -229 -69 -264 -79 -253 -1 2 -29 110
-61 239 -32 129 -62 243 -67 253 -8 16 -16 14 -89 -25 -101 -54 -162 -110
-184 -168 -14 -38 -195 -779 -195 -800 0 -7 171 -49 181 -44 3 1 30 107 60
234 l54 232 6 -63 c4 -35 10 -153 14 -261 4 -109 11 -198 16 -198 5 0 10 -255
13 -567 2 -313 4 -589 4 -614 1 -48 20 -79 49 -79 8 0 31 -13 49 -30 41 -35
104 -54 153 -45 78 15 79 36 5 116 -48 52 -54 63 -40 71 14 8 16 62 16 577 0
553 1 569 19 574 19 5 20 -9 23 -614 3 -664 1 -638 51 -639 38 0 84 -49 107
-113 16 -45 37 -77 75 -114 49 -50 55 -53 104 -53 64 0 98 17 145 71 92 107
109 308 35 408 -50 68 -171 100 -241 63 l-38 -20 0 562 c0 408 3 565 11 573 8
8 15 136 21 410 5 219 13 401 16 404 4 4 144 32 312 64 168 31 317 59 333 62
15 3 27 11 27 18 0 7 22 27 49 44 26 17 56 40 66 51 10 11 23 20 29 20 7 0 19
9 29 20 9 11 23 20 32 20 8 0 19 9 25 20 6 11 18 20 28 20 19 0 592 379 592
392 0 4 -1 8 -2 8 -2 0 -128 -78 -281 -174z"/>
<path d="M1510 4432 c-19 -9 -48 -37 -65 -60 -26 -39 -30 -54 -33 -126 -5 -98
18 -163 75 -217 26 -25 32 -28 24 -12 -6 12 -11 35 -11 52 0 21 -5 31 -15 31
-22 0 -36 36 -33 83 2 35 7 43 26 45 18 3 26 -4 38 -33 8 -20 12 -45 9 -56 -4
-13 -2 -19 9 -19 11 0 16 10 16 33 0 31 3 34 48 45 26 7 79 30 117 50 81 44
90 66 53 122 -48 72 -177 103 -258 62z"/>
<path d="M2688 3160 l77 -120 48 50 c27 27 45 55 42 60 -4 6 -60 37 -126 70
l-119 60 78 -120z"/>
<path d="M950 1793 c-102 -59 -125 -106 -118 -241 3 -75 9 -100 36 -155 79
-161 202 -191 306 -76 61 68 88 142 89 245 1 71 -3 88 -28 140 -26 51 -38 63
-84 87 -73 36 -139 37 -201 0z"/>
<path d="M2835 1804 c-102 -53 -134 -98 -143 -199 -14 -185 106 -367 233 -352
112 12 205 155 205 315 0 89 -17 139 -65 188 -59 61 -163 83 -230 48z"/>
<path d="M3755 1795 c-86 -46 -108 -76 -126 -169 -7 -41 -6 -71 5 -124 57
-276 275 -335 388 -105 26 53 32 80 36 148 9 169 -57 260 -197 272 -47 4 -64
1 -106 -22z"/>
<path d="M897 1235 c-18 -13 -17 -14 12 -30 80 -41 219 -39 273 4 l22 18 -22
12 c-17 9 -28 8 -51 -4 -38 -19 -121 -19 -168 0 -43 18 -43 18 -66 0z"/>
<path d="M1838 1239 c-29 -16 -21 -26 33 -44 67 -23 193 -18 234 9 26 17 27
20 11 32 -14 10 -24 10 -51 -2 -45 -18 -126 -18 -172 1 -19 8 -36 15 -37 15 0
0 -9 -5 -18 -11z"/>
<path d="M2760 1235 c-14 -8 -61 -24 -105 -35 -44 -12 -86 -25 -94 -29 -20
-13 -36 -97 -68 -347 l-28 -226 26 -22 c48 -41 184 -61 419 -61 268 1 424 30
445 83 6 15 -24 265 -52 441 -12 77 -22 108 -37 122 -19 19 -132 59 -163 59
-7 0 -28 7 -44 16 -28 14 -34 14 -64 0 -42 -20 -115 -20 -162 -1 -43 18 -42
18 -73 0z"/>
<path d="M3703 1239 c-6 -6 -53 -22 -104 -35 -51 -14 -101 -31 -110 -40 -18
-16 -33 -102 -69 -392 -22 -177 -20 -195 28 -213 80 -31 183 -42 392 -43 297
-1 440 30 448 96 3 26 -38 357 -59 476 -13 75 -32 90 -138 117 -36 9 -80 23
-98 30 -28 12 -37 12 -67 0 -45 -19 -117 -19 -163 0 -42 18 -46 18 -60 4z"/>
<path d="M662 1060 c-27 -172 -53 -394 -50 -432 4 -51 33 -75 101 -84 l47 -7
0 78 c0 110 -37 353 -73 475 l-13 45 -12 -75z"/>
<path d="M1401 1083 c-26 -100 -31 -124 -45 -208 -23 -130 -36 -270 -29 -309
5 -33 5 -33 45 -24 70 15 107 35 113 61 5 19 -15 196 -51 460 -9 61 -20 68
-33 20z"/>
<path d="M1593 1048 c-7 -40 -22 -157 -34 -260 -26 -214 -26 -216 56 -237 75
-19 75 -19 75 58 0 123 -52 447 -79 499 -4 7 -12 -20 -18 -60z"/>
<path d="M2341 1096 c-32 -80 -86 -420 -79 -506 l3 -45 43 2 c59 3 106 31 110
67 4 28 -43 410 -57 476 l-8 35 -12 -29z"/>
</g>
</svg>
